<svg aria-hidden="true" style="position: absolute; width: 0; height: 0; overflow: hidden;" version="1.1" xmlns="http://www.w3.org/2000/svg" xmlns:xlink="http://www.w3.org/1999/xlink">
<defs>
<symbol id="icon-box-arrow-up-right" viewBox="0 0 34 32">
<path d="M18.273 7c0-0.552-0.448-1-1-1h-13.273c-1.657 0-3 1.343-3 3v20c0 1.657 1.343 3 3 3h20c1.657 0 3-1.343 3-3v-13.273c0-0.552-0.448-1-1-1s-1 0.448-1 1v13.273c0 0.552-0.448 1-1 1h-20c-0.552 0-1-0.448-1-1v-20c0-0.552 0.448-1 1-1h13.273c0.552 0 1-0.448 1-1z"></path>
<path d="M33 1c0-0.552-0.448-1-1-1h-10c-0.552 0-1 0.448-1 1s0.448 1 1 1h7.586l-16.293 16.293c-0.391 0.391-0.391 1.024 0 1.414s1.024 0.39 1.414 0l16.293-16.293v7.586c0 0.552 0.448 1 1 1s1-0.448 1-1v-10z"></path>
</symbol>

<symbol id="icon-arrow-link" viewBox="0 0 33 32">
<path stroke-linejoin="miter" stroke-linecap="butt" stroke-miterlimit="4" stroke-width="0.8889" d="M16.444 0.444c6.627 0 12 5.373 12 12s-5.373 12-12 12c-6.627 0-12-5.373-12-12s5.373-12 12-12z"></path>
<path d="M21.778 7.556c0-0.245-0.199-0.444-0.444-0.444h-5.333c-0.245 0-0.444 0.199-0.444 0.444s0.199 0.444 0.444 0.444h4.26l-9.019 9.019c-0.174 0.174-0.174 0.455 0 0.629s0.455 0.174 0.629 0l9.019-9.019v4.26c0 0.245 0.199 0.444 0.444 0.444s0.444-0.199 0.444-0.444v-5.333z"></path>
</symbol>

</defs>
</svg>


